<svg xmlns="http://www.w3.org/2000/svg" width="64" height="64" viewBox="0 0 64 64" fill="none" stroke-linecap="round" stroke-linejoin="round" aria-hidden="true">
  <title>Money Bag</title>
  <desc>MRX custom icon for Money Bag</desc>
  <path d="M25 10h14l-4 8h-6Z" fill="none" stroke="#C8A24A" stroke-width="2.5" stroke-linecap="round" stroke-linejoin="round"/>
  <path d="M21 21c-7 7-11 15-11 24 0 8 8 12 22 12s22-4 22-12c0-9-4-17-11-24Z" fill="none" stroke="#0B1F3A" stroke-width="2.5" stroke-linecap="round" stroke-linejoin="round"/>
  <path d="M28 30c0-3 2-5 5-5s5 2 5 5-2 4-5 4-5 1-5 4 2 5 5 5 5-2 5-5" fill="none" stroke="#C8A24A" stroke-width="2.5" stroke-linecap="round" stroke-linejoin="round"/>
  <path d="M33 24L33 46" fill="none" stroke="#C8A24A" stroke-width="2.5" stroke-linecap="round" stroke-linejoin="round"/>
  <path d="M14 57h36" fill="none" stroke="#C8A24A" stroke-width="1.8" stroke-linecap="round" stroke-linejoin="round"/>
</svg>
